<?xml version="1.0" encoding="UTF-8"?>
<svg width="752pt" height="752pt" version="1.1" viewBox="0 0 752 752" xmlns="http://www.w3.org/2000/svg">
 <g>
  <path d="m241.82 415.46c0 2.0938 0.83203 4.1016 2.3125 5.582 1.4805 1.4805 3.4883 2.3125 5.582 2.3125h252.57c2.0938 0 4.1016-0.83203 5.582-2.3125 1.4805-1.4805 2.3125-3.4883 2.3125-5.582v-165.75h-268.36zm71.039-118.39h-0.003906c0-6.2773 2.4961-12.301 6.9375-16.742 4.4414-4.4414 10.465-6.9375 16.742-6.9375h78.93c7.418 0.019531 14.391 3.5312 18.828 9.4727l15.059-15.059c3.0977-2.9922 8.0195-2.9492 11.062 0.09375 3.0469 3.0469 3.0898 7.9688 0.097657 11.066l-21.367 21.375v75.66c0 6.2812-2.4922 12.305-6.9336 16.746-4.4414 4.4414-10.465 6.9336-16.746 6.9336h-78.93c-6.2773 0-12.301-2.4922-16.742-6.9336-4.4414-4.4414-6.9375-10.465-6.9375-16.746z"/>
  <path d="m336.54 383.89h78.93c2.0938 0 4.1016-0.83203 5.582-2.3125s2.3125-3.4883 2.3125-5.582v-59.875l-33.883 33.883c-3.0859 3.082-8.082 3.082-11.164 0l-15.785-15.785c-2.9922-3.0977-2.9492-8.0195 0.097656-11.062 3.043-3.0469 7.9648-3.0898 11.062-0.097656l10.207 10.207 38.914-38.914c-1.1172-3.0938-4.0508-5.1641-7.3438-5.1758h-78.93c-4.3594 0-7.8906 3.5312-7.8906 7.8906v78.93c0 2.0938 0.83203 4.1016 2.3125 5.582 1.4766 1.4805 3.4844 2.3125 5.5781 2.3125z"/>
  <path d="m581.22 155h-410.44c-4.1836 0-8.1992 1.6641-11.16 4.625-2.9609 2.9609-4.625 6.9766-4.625 11.16v284.15h442.01v-284.15c0-4.1836-1.6602-8.1992-4.6211-11.16-2.9609-2.9609-6.9766-4.625-11.164-4.625zm-55.25 260.47c0 6.2812-2.4961 12.305-6.9336 16.746-4.4414 4.4414-10.465 6.9336-16.746 6.9336h-252.57c-6.2812 0-12.305-2.4922-16.746-6.9336-4.4414-4.4414-6.9336-10.465-6.9336-16.746v-205.21c0-6.2812 2.4922-12.305 6.9336-16.746s10.465-6.9336 16.746-6.9336h23.68l-0.003906-7.8945c0-4.3594 3.5352-7.8945 7.8945-7.8945s7.8945 3.5352 7.8945 7.8945v7.8945h47.359l-0.003906-7.8945c0-4.3594 3.5352-7.8945 7.8945-7.8945 4.3594 0 7.8945 3.5352 7.8945 7.8945v7.8945h47.359l-0.003906-7.8945c0-4.3594 3.5352-7.8945 7.8945-7.8945s7.8906 3.5352 7.8906 7.8945v7.8945h47.359v-7.8945c0-4.3594 3.5352-7.8945 7.8945-7.8945s7.8906 3.5352 7.8906 7.8945v7.8945h23.68c6.2812 0 12.305 2.4922 16.746 6.9336 4.4375 4.4414 6.9336 10.465 6.9336 16.746z"/>
  <path d="m502.29 202.36h-23.68v7.8945c0 4.3555-3.5312 7.8906-7.8906 7.8906s-7.8945-3.5352-7.8945-7.8906v-7.8945h-47.359v7.8945c0 4.3555-3.5312 7.8906-7.8906 7.8906s-7.8945-3.5352-7.8945-7.8906v-7.8945h-47.355v7.8945c0 4.3555-3.5352 7.8906-7.8945 7.8906-4.3594 0-7.8945-3.5352-7.8945-7.8906v-7.8945h-47.355v7.8945c0 4.3555-3.5352 7.8906-7.8945 7.8906s-7.8945-3.5352-7.8945-7.8906v-7.8945h-23.676c-4.3594 0-7.8945 3.5352-7.8945 7.8945v23.68l268.36-0.003907v-23.676c0-2.0938-0.83203-4.1016-2.3125-5.582-1.4805-1.4805-3.4883-2.3125-5.582-2.3125z"/>
  <path d="m155 502.29c0 4.1875 1.6641 8.2031 4.625 11.164 2.9609 2.9609 6.9766 4.6211 11.16 4.6211h410.44c4.1875 0 8.2031-1.6602 11.164-4.6211 2.9609-2.9609 4.6211-6.9766 4.6211-11.164v-31.57h-442.01zm205.22-15.785h31.574c4.3594 0 7.8906 3.5352 7.8906 7.8945 0 4.3555-3.5312 7.8906-7.8906 7.8906h-31.574c-4.3594 0-7.8906-3.5352-7.8906-7.8906 0-4.3594 3.5312-7.8945 7.8906-7.8945z"/>
  <path d="m486.5 589.11h-61.086c-6.4844-9.25-9.957-20.277-9.9531-31.574v-23.676h-78.93v23.68-0.003907c0.007813 11.297-3.4688 22.324-9.9531 31.574h-61.082c-4.3594 0-7.8945 3.5352-7.8945 7.8906 0 4.3594 3.5352 7.8945 7.8945 7.8945h221c4.3594 0 7.8945-3.5352 7.8945-7.8945 0-4.3555-3.5352-7.8906-7.8945-7.8906z"/>
 </g>
</svg>
