<?xml version="1.0" encoding="UTF-8"?>
<svg width="752pt" height="752pt" version="1.1" viewBox="0 0 752 752" xmlns="http://www.w3.org/2000/svg">
 <g>
  <path d="m245.29 342.85c15.629 1.8945 30.309-9.9453 31.73-25.574 1.8945-15.629-9.9453-30.309-25.574-31.73-15.629-1.8945-30.309 9.9453-31.73 25.574-1.8945 15.629 9.4727 29.836 25.574 31.73z"/>
  <path d="m246.71 457.93h-41.676c-9.9453 0-17.996-7.1055-19.891-16.574l-14.207-80.508c-0.94531-5.6836-6.1562-8.9961-11.84-8.0508-5.6836 0.94531-8.9961 6.1562-8.0508 11.84l14.207 80.508c3.3164 19.418 19.891 33.152 39.309 33.152h34.57v36.465c0 5.6836 4.2617 9.9453 9.9453 9.9453 5.6836 0 9.9453-4.2617 9.9453-9.9453v-43.57c0.47266-7.1055-5.2109-13.262-12.312-13.262z"/>
  <path d="m279.39 415.78h-26.52l6.6289-31.258 18.469 8.9961c1.8945 0.94531 3.7891 1.4219 5.6836 1.4219h0.47266l27.941-1.4219c7.5781-0.47266 13.262-6.6289 12.785-13.734-0.47266-7.5781-6.6289-13.262-13.734-12.785l-24.625 0.94531s-27.941-14.68-31.258-15.629c-3.7891-0.94531-19.891-4.2617-19.891-4.2617-5.6836-1.4219-11.367 0-16.102 2.8398-4.7344 3.3164-8.0508 8.0508-9.4727 13.734l-11.84 55.883c-1.4219 6.1562 0.47266 12.312 4.2617 17.523 3.7891 4.7344 9.9453 7.5781 16.102 7.5781h46.41c2.8398 0 5.2109 2.3672 5.2109 5.2109v57.777c0 8.0508 6.6289 15.156 15.156 15.156 8.0508 0 15.156-6.6289 15.156-15.156v-71.035c0.47656-11.84-8.9961-21.785-20.836-21.785z"/>
  <path d="m506.71 342.85c15.629-1.8945 27.469-16.102 25.574-31.73-1.8945-15.629-16.102-27.469-31.73-25.574-15.629 1.8945-27.469 16.102-25.574 31.73s16.102 26.996 31.73 25.574z"/>
  <path d="m592.9 352.8c-5.2109-0.94531-10.418 2.8398-11.84 8.0508l-14.207 80.508c-1.8945 9.4727-9.9453 16.574-19.891 16.574h-41.676c-7.1055 0-12.785 5.6836-12.785 12.785v43.57c0 5.6836 4.2617 9.9453 9.9453 9.9453 5.6836 0 9.9453-4.2617 9.9453-9.9453v-36.465h34.57c19.418 0 35.992-13.734 39.309-33.152l14.207-80.508c1.418-5.207-2.3711-10.418-7.5781-11.363z"/>
  <path d="m548.86 438.04c3.7891-4.7344 5.6836-11.367 4.2617-17.523l-11.367-55.879c-0.94531-5.6836-4.2617-10.418-9.4727-13.734-4.7344-3.3164-10.418-4.2617-16.102-2.8398 0 0-16.102 3.3164-19.891 4.2617-3.3164 0.94531-31.258 15.629-31.258 15.629l-24.625-0.94531c-7.1055-0.47266-13.734 5.2109-13.734 12.785-0.47266 7.5781 5.2109 13.734 12.785 13.734l27.941 1.4219h0.47266c1.8945 0 3.7891-0.47266 5.6836-1.4219l18.469-8.9961 6.6289 31.258h-26.047c-11.84 0-21.312 9.4727-21.312 21.312v71.512c0 8.0508 6.6289 15.156 15.156 15.156 8.0508 0 15.156-6.6289 15.156-15.156l0.003906-57.312c0-2.8398 2.3672-5.2109 5.2109-5.2109h46.41c6.1562 0 11.84-2.8398 15.629-8.0508z"/>
  <path d="m432.36 404.89h-112.71c-5.6836 0-9.9453 4.2617-9.9453 9.9453 0 5.6836 4.2617 9.9453 9.9453 9.9453h46.41v89.508c0 5.6836 4.2617 9.9453 9.9453 9.9453s9.9453-4.2617 9.9453-9.9453v-89.035h46.41c5.6836 0 9.9453-4.2617 9.9453-9.9453 0.003907-5.6836-4.2617-10.418-9.9414-10.418z"/>
  <path d="m309.23 302.12c-1.4219 3.7891-3.7891 8.5234-8.9961 14.68-3.3164 3.7891 0.47266 9.4727 5.2109 7.5781 9.4727-3.7891 20.836-8.5234 31.258-13.734 3.3164 0.47266 6.1562 0.47266 9.4727 0.47266 32.676 0 58.723-18.941 58.723-42.148s-26.52-42.148-58.723-42.148c-32.676 0-58.723 18.941-58.723 42.148-0.48047 13.738 8.5156 25.578 21.777 33.152zm65.828-41.199c4.7344 0 8.5234 3.7891 8.5234 8.5234 0 4.7344-3.7891 8.5234-8.5234 8.5234-4.7344 0-8.5234-3.7891-8.5234-8.5234 0-4.7344 3.7891-8.5234 8.5234-8.5234zm-28.891 0c4.7344 0 8.5234 3.7891 8.5234 8.5234 0 4.7344-3.7891 8.5234-8.5234 8.5234-4.7344 0-8.5234-3.7891-8.5234-8.5234-0.47266-4.7344 3.7891-8.5234 8.5234-8.5234zm-29.359 0c4.7344 0 8.5234 3.7891 8.5234 8.5234 0 4.7344-3.7891 8.5234-8.5234 8.5234-4.7344 0-8.5234-3.7891-8.5234-8.5234 0-4.7344 3.7852-8.5234 8.5234-8.5234z"/>
 </g>
</svg>
