<?xml version="1.0" encoding="UTF-8"?>
<svg width="752pt" height="752pt" version="1.1" viewBox="0 0 752 752" xmlns="http://www.w3.org/2000/svg">
 <g>
  <path d="m239.32 377.44 0.085937 0.57422c0.76172 6.8438 8.8125 66.988 63.633 66.988 54.922 0 62.898-60.16 63.617-66.902l0.10156-0.66016c5.5547-0.80469 10.535-4.0195 14.094-9.2852 5.8281-8.5664 6.7148-20.578 2.1523-29.176-1.2617-2.3828-3-4.2891-4.9062-5.9844 2.2383-10.719 2.4531-28.773 0.54688-45.562-3-12.73-13.891-15.887-13.891-15.887s-21.555-33.438-61.723-33.438c-40.184 0-61.723 33.438-61.723 33.438s-10.891 3.1719-13.891 15.887c-1.9102 16.789-1.6953 34.844 0.54688 45.578-1.9102 1.6797-3.6289 3.5859-4.8945 5.9688-4.5508 8.6094-3.6875 20.609 2.1367 29.176 3.5625 5.2656 8.5586 8.4805 14.113 9.2852z"/>
  <path d="m454.69 510.66c-4.3633-32.836-28.758-50.531-50.141-59.914 3.6758 17.32 6.0859 44.859-6.7305 70.074 2.4258 3.0586 3.9336 6.875 3.9336 11.066 0 9.918-8.0352 17.938-17.926 17.938-9.918 0-17.938-8.0234-17.938-17.938 0-9.8867 8.0234-17.926 17.938-17.926 1.4492 0 2.8398 0.21484 4.2031 0.54688 12.398-25.789 7.0742-54.934 3.3281-68.77-11.84-3.7891-20.637-4.9375-20.637-4.9375l-47.934 70.621-7.9492-18.141c-1.4766-3.5 0.48828-4.7656 1.5078-6.3867l12.656-16.258c0.98828-1.6055 0.53125-3.7891-1.0469-4.8516l-22.07-14.738c-0.78906-0.53125-1.8516-0.80469-2.8828-0.80469-1.0352 0-2.0938 0.27344-2.8828 0.80469l-22.059 14.738c-1.5938 1.0625-2.0508 3.2422-1.0469 4.8516l12.656 16.258c1.0039 1.6211 2.9688 2.8828 1.4922 6.3867l-7.9492 18.125-47.918-70.605s-8.7812 1.1484-20.621 4.9375c-2.0508 7.5469-4.5625 19.602-4.4648 33.223 18.383-0.25781 30.641 18.238 36.352 35.375 5.1523 15.355 9.3008 40.238-11.812 45.406-7.2461 1.7656-10.332-9.3867-3.0859-11.152 12.387-3.0273 7.1328-19.246 4.7773-27.797-4.2891-15.484-12.355-32.547-31.301-29.191-27.266 4.8516-18.57 67.305 0.57422 63.043 7.2617-1.5938 10.363 9.543 3.0859 11.164-19.762 4.3906-27.352-15.383-30.383-30.953-4.1758-21.496-2.4961-44.027 19.992-53.344 0.11328-0.058593 0.23047-0.085937 0.32812-0.11328-0.35938-11.738 1.1211-22.387 2.8555-30.738-21.41 9.3711-45.895 27.094-50.258 59.988-5.8945 44.742-4.875 67.691-4.875 67.691h313.15s1.0195-22.949-4.9219-67.68z"/>
  <path d="m508.45 173.67c-53.672 0-97.172 33.984-97.172 75.918 0 12.328 3.8477 23.938 10.504 34.227v35.574c0 9.4844 5.8125 12.098 12.914 5.7969l16.301-14.465c16.102 9.2578 35.922 14.766 57.445 14.766 53.645 0 97.172-33.969 97.172-75.902 0.007813-41.93-43.504-75.914-97.164-75.914zm-55.02 58.766c9.457 0 17.137 7.6914 17.137 17.148 0 9.4727-7.6797 17.137-17.137 17.137-9.4727 0-17.148-7.6641-17.148-17.137-0.015625-9.457 7.6602-17.148 17.148-17.148zm55.02 34.285c-9.4727 0-17.148-7.6641-17.148-17.137 0-9.4727 7.6797-17.148 17.148-17.148 9.457 0 17.137 7.6797 17.137 17.148 0 9.4727-7.6641 17.137-17.137 17.137zm55.023 0c-9.4727 0-17.148-7.6641-17.148-17.137 0-9.457 7.6797-17.148 17.148-17.148 9.4727 0 17.148 7.6914 17.148 17.148 0.015624 9.4727-7.6641 17.137-17.148 17.137z"/>
 </g>
</svg>
