<?xml version="1.0" encoding="UTF-8"?>
<svg width="752pt" height="752pt" version="1.1" viewBox="0 0 752 752" xmlns="http://www.w3.org/2000/svg">
 <g>
  <path d="m575 364.53-19.125-5.6484-30.234-75.043c-2.0352-5.0547-5.5312-9.3828-10.043-12.434-4.5117-3.0508-9.832-4.6836-15.277-4.6875h-315.57c-7.2461 0-14.195 2.8789-19.316 8-5.125 5.125-8.0039 12.074-8.0039 19.32v200.36c0 7.2461 2.8789 14.195 8.0039 19.316 5.1211 5.125 12.07 8.0039 19.316 8.0039 0.72656 0.085938 1.4609 0.085938 2.1875 0 0.69531 0.09375 1.3984 0.09375 2.0938 0h4.8281c-0.007813-8.3516 1.4414-16.645 4.2812-24.5 6.7734-18.992 21.121-34.332 39.621-42.359s39.5-8.0273 58.004 0c18.5 8.0273 32.844 23.367 39.621 42.359 2.8203 7.8594 4.2383 16.152 4.1875 24.5h63.754c-0.007813-8.3242 1.4375-16.586 4.2812-24.406 6.7734-18.996 21.121-34.332 39.621-42.363 18.5-8.0273 39.5-8.0273 58.004 0 18.5 8.0312 32.844 23.367 39.621 42.363 2.8008 7.8281 4.2188 16.09 4.1875 24.406h4.2812c0.72656 0.09375 1.4609 0.09375 2.1875 0 0.69531 0.09375 1.3984 0.09375 2.0938 0h9.6523c7.2461 0 14.195-2.8789 19.32-8.0039 5.125-5.1211 8.0039-12.07 8.0039-19.316v-103.64c0.003906-5.8984-1.8984-11.641-5.4297-16.371-3.5273-4.7266-8.4922-8.1836-14.152-9.8555zm-217.21 16.758c0.003906 0.41797-0.30859 0.77344-0.72656 0.81641h-29.598v29.602c-0.046876 0.41406-0.40234 0.73047-0.82031 0.72656h-28.781c-0.41797 0.003906-0.77344-0.3125-0.82031-0.72656v-29.602h-29.598c-0.41797-0.042968-0.73047-0.39844-0.72656-0.81641v-28.781c-0.003906-0.41797 0.30859-0.77344 0.72656-0.82031h29.598v-29.598c0.046876-0.41797 0.40234-0.73047 0.82031-0.72656h28.781c0.41797-0.003906 0.77344 0.30859 0.82031 0.72656v29.598h29.598c0.41797 0.046875 0.73047 0.40234 0.72656 0.82031z"/>
  <path d="m266.71 467.07c-11.289 0.011719-22.301 3.5234-31.512 10.047-9.2148 6.5234-16.184 15.738-19.945 26.383-2.125 5.8359-3.2031 12.004-3.1875 18.215 0 19.523 10.414 37.562 27.32 47.324s37.738 9.7617 54.645 0 27.324-27.801 27.324-47.324c0.015625-6.2109-1.0625-12.379-3.1914-18.215-3.7617-10.645-10.73-19.859-19.941-26.383-9.2148-6.5234-20.223-10.035-31.512-10.047z"/>
  <path d="m476.18 467.07c-11.289 0.011719-22.301 3.5234-31.512 10.047-9.2148 6.5234-16.184 15.738-19.945 26.383-2.125 5.8359-3.207 12.004-3.1875 18.215 0 19.523 10.414 37.562 27.32 47.324s37.738 9.7617 54.645 0 27.32-27.801 27.32-47.324c0.019531-6.2109-1.0625-12.379-3.1875-18.215-3.7617-10.645-10.73-19.859-19.941-26.383-9.2148-6.5234-20.223-10.035-31.512-10.047z"/>
  <path d="m421.54 230.29c-8.0742 0.003906-15.914 2.6914-22.293 7.6367s-10.934 11.867-12.953 19.684h70.492c-2.0195-7.8164-6.5742-14.738-12.957-19.684-6.3789-4.9453-14.219-7.6328-22.289-7.6367z"/>
  <path d="m467.07 230.74c2.4219 0.015625 4.7461-0.93359 6.4648-2.6406l12.84-12.934 0.003906 0.003907c3.0938-3.6172 2.8867-9-0.47656-12.367-3.3672-3.3633-8.75-3.5703-12.367-0.47656l-13.387 12.844c-1.7227 1.707-2.6914 4.0352-2.6914 6.4648 0 2.4297 0.96875 4.7539 2.6914 6.4648 1.8281 1.8203 4.3438 2.7812 6.9219 2.6406z"/>
  <path d="m421.54 212.07c2.4141 0 4.7305-0.96094 6.4375-2.668 1.7109-1.707 2.668-4.0234 2.668-6.4414v-18.215c0-5.0273-4.0781-9.1055-9.1055-9.1055-5.0312 0-9.1094 4.0781-9.1094 9.1055v18.215c0 2.418 0.96094 4.7344 2.668 6.4414 1.707 1.707 4.0234 2.668 6.4414 2.668z"/>
  <path d="m369.99 228.1c1.707 1.7266 4.0352 2.6953 6.4648 2.6953 2.4297 0 4.7578-0.96875 6.4648-2.6953 1.7266-1.7109 2.6953-4.0352 2.6953-6.4648 0-2.4297-0.96875-4.7578-2.6953-6.4648l-12.93-12.844c-1.6523-1.9258-4.0312-3.0781-6.5664-3.1758-2.5352-0.097657-5 0.86719-6.793 2.6602-1.793 1.793-2.7578 4.2578-2.6602 6.793 0.097656 2.5352 1.25 4.9141 3.1758 6.5664z"/>
 </g>
</svg>
